<svg width="64" height="64" viewBox="0 0 64 64" fill="none" xmlns="http://www.w3.org/2000/svg">
  <path d="M32 8C18.193 8 7 18.298 7 31C7 38.794 11.215 45.681 17.67 49.725C17.734 49.765 17.775 49.833 17.779 49.908C17.928 52.727 18.945 55.332 20.706 57.511C20.977 57.846 20.739 58.348 20.311 58.348H16.4C15.848 58.348 15.4 58.796 15.4 59.348V60C15.4 60.552 15.848 61 16.4 61H47.6C48.152 61 48.6 60.552 48.6 60V59.348C48.6 58.796 48.152 58.348 47.6 58.348H43.689C43.261 58.348 43.023 57.846 43.294 57.511C45.055 55.332 46.072 52.727 46.221 49.908C46.225 49.833 46.266 49.765 46.33 49.725C52.785 45.681 57 38.794 57 31C57 18.298 45.807 8 32 8Z" fill="#F8FAFC"/>
  <path d="M32 8C18.193 8 7 18.298 7 31C7 38.794 11.215 45.681 17.67 49.725C17.734 49.765 17.775 49.833 17.779 49.908C17.928 52.727 18.945 55.332 20.706 57.511C20.977 57.846 20.739 58.348 20.311 58.348H16.4C15.848 58.348 15.4 58.796 15.4 59.348V60C15.4 60.552 15.848 61 16.4 61H47.6C48.152 61 48.6 60.552 48.6 60V59.348C48.6 58.796 48.152 58.348 47.6 58.348H43.689C43.261 58.348 43.023 57.846 43.294 57.511C45.055 55.332 46.072 52.727 46.221 49.908C46.225 49.833 46.266 49.765 46.33 49.725C52.785 45.681 57 38.794 57 31C57 18.298 45.807 8 32 8Z" stroke="#0F172A" stroke-width="3" stroke-linejoin="round"/>
  <path d="M24 29.5C24 28.1193 22.8807 27 21.5 27C20.1193 27 19 28.1193 19 29.5C19 30.8807 20.1193 32 21.5 32C22.8807 32 24 30.8807 24 29.5Z" fill="#0F172A"/>
  <path d="M45 29.5C45 28.1193 43.8807 27 42.5 27C41.1193 27 40 28.1193 40 29.5C40 30.8807 41.1193 32 42.5 32C43.8807 32 45 30.8807 45 29.5Z" fill="#0F172A"/>
  <path d="M24.5 38C26.6108 40.2774 29.2302 41.4161 32 41.4161C34.7698 41.4161 37.3892 40.2774 39.5 38" stroke="#0F172A" stroke-width="3" stroke-linecap="round"/>
  <circle cx="22.5" cy="56" r="4" fill="#0F172A"/>
  <circle cx="41.5" cy="56" r="4" fill="#0F172A"/>
  <path d="M45 16C48.5899 17.5098 51.3615 20.2262 52.838 23.5779" stroke="#0F172A" stroke-width="3" stroke-linecap="round"/>
</svg>
